<svg xmlns="http://www.w3.org/2000/svg" width="1000" height="1000" viewBox="0 0 40 40" shape-rendering="crispEdges"><rect width="40" height="40" fill="#e3e5e4"/><rect x="15" y="0" width="6" height="1" fill="#48494b"/><rect x="11" y="1" width="17" height="1" fill="#48494b"/><rect x="9" y="2" width="21" height="1" fill="#48494b"/><rect x="9" y="3" width="22" height="1" fill="#48494b"/><rect x="8" y="4" width="24" height="1" fill="#48494b"/><rect x="8" y="5" width="25" height="1" fill="#48494b"/><rect x="7" y="6" width="22" height="1" fill="#48494b"/><rect x="30" y="6" width="3" height="1" fill="#48494b"/><rect x="7" y="7" width="7" height="1" fill="#48494b"/><rect x="15" y="7" width="3" height="1" fill="#48494b"/><rect x="19" y="7" width="1" height="1" fill="#48494b"/><rect x="21" y="7" width="4" height="1" fill="#48494b"/><rect x="26" y="7" width="8" height="1" fill="#48494b"/><rect x="7" y="8" width="8" height="1" fill="#48494b"/><rect x="16" y="8" width="3" height="1" fill="#48494b"/><rect x="20" y="8" width="1" height="1" fill="#48494b"/><rect x="22" y="8" width="4" height="1" fill="#48494b"/><rect x="27" y="8" width="7" height="1" fill="#48494b"/><rect x="6" y="9" width="18" height="1" fill="#48494b"/><rect x="25" y="9" width="9" height="1" fill="#48494b"/><rect x="6" y="10" width="18" height="1" fill="#48494b"/><rect x="25" y="10" width="9" height="1" fill="#48494b"/><rect x="6" y="11" width="10" height="1" fill="#48494b"/><rect x="17" y="11" width="7" height="1" fill="#48494b"/><rect x="26" y="11" width="8" height="1" fill="#48494b"/><rect x="6" y="12" width="7" height="1" fill="#48494b"/><rect x="14" y="12" width="2" height="1" fill="#48494b"/><rect x="18" y="12" width="6" height="1" fill="#48494b"/><rect x="26" y="12" width="9" height="1" fill="#48494b"/><rect x="6" y="13" width="6" height="1" fill="#48494b"/><rect x="30" y="13" width="5" height="1" fill="#48494b"/><rect x="5" y="14" width="6" height="1" fill="#48494b"/><rect x="12" y="14" width="6" height="1" fill="#48494b"/><rect x="23" y="14" width="6" height="1" fill="#48494b"/><rect x="30" y="14" width="5" height="1" fill="#48494b"/><rect x="5" y="15" width="6" height="1" fill="#48494b"/><rect x="31" y="15" width="4" height="1" fill="#48494b"/><rect x="5" y="16" width="6" height="1" fill="#48494b"/><rect x="12" y="16" width="2" height="1" fill="#48494b"/><rect x="15" y="16" width="2" height="1" fill="#48494b"/><rect x="24" y="16" width="2" height="1" fill="#48494b"/><rect x="27" y="16" width="2" height="1" fill="#48494b"/><rect x="32" y="16" width="4" height="1" fill="#48494b"/><rect x="5" y="17" width="6" height="1" fill="#48494b"/><rect x="12" y="17" width="1" height="1" fill="#48494b"/><rect x="14" y="17" width="4" height="1" fill="#48494b"/><rect x="24" y="17" width="3" height="1" fill="#48494b"/><rect x="28" y="17" width="1" height="1" fill="#48494b"/><rect x="31" y="17" width="5" height="1" fill="#48494b"/><rect x="5" y="18" width="5" height="1" fill="#48494b"/><rect x="14" y="18" width="3" height="1" fill="#48494b"/><rect x="24" y="18" width="3" height="1" fill="#48494b"/><rect x="31" y="18" width="1" height="1" fill="#48494b"/><rect x="33" y="18" width="3" height="1" fill="#48494b"/><rect x="4" y="19" width="7" height="1" fill="#48494b"/><rect x="13" y="19" width="3" height="1" fill="#48494b"/><rect x="24" y="19" width="4" height="1" fill="#48494b"/><rect x="31" y="19" width="1" height="1" fill="#48494b"/><rect x="33" y="19" width="3" height="1" fill="#48494b"/><rect x="4" y="20" width="7" height="1" fill="#48494b"/><rect x="30" y="20" width="1" height="1" fill="#48494b"/><rect x="32" y="20" width="5" height="1" fill="#48494b"/><rect x="3" y="21" width="8" height="1" fill="#48494b"/><rect x="27" y="21" width="1" height="1" fill="#48494b"/><rect x="30" y="21" width="1" height="1" fill="#48494b"/><rect x="32" y="21" width="5" height="1" fill="#48494b"/><rect x="3" y="22" width="8" height="1" fill="#48494b"/><rect x="19" y="22" width="1" height="1" fill="#48494b"/><rect x="21" y="22" width="1" height="1" fill="#48494b"/><rect x="31" y="22" width="7" height="1" fill="#48494b"/><rect x="3" y="23" width="9" height="1" fill="#48494b"/><rect x="29" y="23" width="9" height="1" fill="#48494b"/><rect x="2" y="24" width="11" height="1" fill="#48494b"/><rect x="19" y="24" width="3" height="1" fill="#48494b"/><rect x="28" y="24" width="10" height="1" fill="#48494b"/><rect x="2" y="25" width="12" height="1" fill="#48494b"/><rect x="27" y="25" width="11" height="1" fill="#48494b"/><rect x="2" y="26" width="13" height="1" fill="#48494b"/><rect x="26" y="26" width="12" height="1" fill="#48494b"/><rect x="3" y="27" width="14" height="1" fill="#48494b"/><rect x="24" y="27" width="11" height="1" fill="#48494b"/><rect x="36" y="27" width="2" height="1" fill="#48494b"/><rect x="3" y="28" width="15" height="1" fill="#48494b"/><rect x="23" y="28" width="8" height="1" fill="#48494b"/><rect x="32" y="28" width="3" height="1" fill="#48494b"/><rect x="36" y="28" width="1" height="1" fill="#48494b"/><rect x="6" y="29" width="2" height="1" fill="#48494b"/><rect x="9" y="29" width="7" height="1" fill="#48494b"/><rect x="17" y="29" width="14" height="1" fill="#48494b"/><rect x="32" y="29" width="3" height="1" fill="#48494b"/><rect x="36" y="29" width="1" height="1" fill="#48494b"/><rect x="7" y="30" width="1" height="1" fill="#48494b"/><rect x="10" y="30" width="6" height="1" fill="#48494b"/><rect x="19" y="30" width="2" height="1" fill="#48494b"/><rect x="24" y="30" width="4" height="1" fill="#48494b"/><rect x="29" y="30" width="4" height="1" fill="#48494b"/><rect x="10" y="31" width="3" height="1" fill="#48494b"/><rect x="14" y="31" width="1" height="1" fill="#48494b"/><rect x="27" y="31" width="1" height="1" fill="#48494b"/><rect x="13" y="32" width="2" height="1" fill="#48494b"/><rect x="26" y="32" width="2" height="1" fill="#48494b"/><rect x="10" y="33" width="1" height="1" fill="#48494b"/><rect x="14" y="33" width="2" height="1" fill="#48494b"/><rect x="26" y="33" width="1" height="1" fill="#48494b"/><rect x="29" y="33" width="2" height="1" fill="#48494b"/><rect x="8" y="34" width="1" height="1" fill="#48494b"/><rect x="12" y="34" width="1" height="1" fill="#48494b"/><rect x="16" y="34" width="3" height="1" fill="#48494b"/><rect x="23" y="34" width="2" height="1" fill="#48494b"/><rect x="29" y="34" width="1" height="1" fill="#48494b"/><rect x="31" y="34" width="2" height="1" fill="#48494b"/><rect x="5" y="35" width="2" height="1" fill="#48494b"/><rect x="13" y="35" width="1" height="1" fill="#48494b"/><rect x="19" y="35" width="1" height="1" fill="#48494b"/><rect x="21" y="35" width="1" height="1" fill="#48494b"/><rect x="28" y="35" width="1" height="1" fill="#48494b"/><rect x="34" y="35" width="1" height="1" fill="#48494b"/><rect x="4" y="36" width="1" height="1" fill="#48494b"/><rect x="14" y="36" width="1" height="1" fill="#48494b"/><rect x="27" y="36" width="1" height="1" fill="#48494b"/><rect x="36" y="36" width="1" height="1" fill="#48494b"/><rect x="6" y="37" width="1" height="1" fill="#48494b"/><rect x="16" y="37" width="1" height="1" fill="#48494b"/><rect x="24" y="37" width="2" height="1" fill="#48494b"/><rect x="36" y="37" width="2" height="1" fill="#48494b"/><rect x="2" y="38" width="1" height="1" fill="#48494b"/><rect x="4" y="38" width="1" height="1" fill="#48494b"/><rect x="19" y="38" width="4" height="1" fill="#48494b"/><rect x="27" y="38" width="1" height="1" fill="#48494b"/><rect x="7" y="39" width="1" height="1" fill="#48494b"/><rect x="19" y="39" width="1" height="1" fill="#48494b"/><rect x="23" y="39" width="1" height="1" fill="#48494b"/><rect x="35" y="39" width="1" height="1" fill="#48494b"/></svg>