<svg xmlns="http://www.w3.org/2000/svg" width="1200" height="1600" viewBox="0 0 1200 1600" font-family="'Helvetica Neue',Helvetica,Arial,'Liberation Sans',sans-serif">
<defs>
<radialGradient id="vign" cx="50%" cy="46%" r="72%"><stop offset="0%" stop-color="#f4f5f4"/><stop offset="100%" stop-color="#e3e5e4"/></radialGradient>
<filter id="soft" x="-40%" y="-40%" width="180%" height="180%"><feDropShadow dx="0" dy="10" stdDeviation="16" flood-color="#2c2d2f" flood-opacity="0.16"/></filter>
</defs>
<rect width="1200" height="1600" fill="url(#vign)"/>
<rect x="26" y="26" width="1148" height="1548" fill="none" stroke="#cdcfce" stroke-width="1.5"/>
<g font-family="'SFMono-Regular','SF Mono','JetBrains Mono',Menlo,Consolas,'Liberation Mono',monospace" font-size="15" letter-spacing="3" fill="#48494b">
<rect x="80" y="83" width="17" height="17" rx="3" fill="#2c2d2f"/>
<path d="M84 91 l3 3 l6 -7" fill="none" stroke="#e3e5e4" stroke-width="2" stroke-linecap="round" stroke-linejoin="round"/>
<text x="108" y="96">ERC-8257 AGENT TOOL &#183; OPENSEA #71 &#183; ONCHAIN-HASH VERIFIED</text>
</g>
<text x="80" y="216" font-family="'Helvetica Neue',Helvetica,Arial,'Liberation Sans',sans-serif" font-weight="800" font-size="80" letter-spacing="-3" fill="#2c2d2f">CRYPTO-KNOWLEDGE</text>
<text x="82" y="262" font-family="'Helvetica Neue',Helvetica,Arial,'Liberation Sans',sans-serif" font-weight="400" font-size="27" fill="#48494b">The on-chain brain for autonomous AI agents.</text>
<line x1="80" y1="300" x2="1120" y2="300" stroke="#cdcfce" stroke-width="1.5"/>
<g font-family="'SFMono-Regular','SF Mono','JetBrains Mono',Menlo,Consolas,'Liberation Mono',monospace" font-size="14" letter-spacing="2" fill="#8d8f90">
<text x="80" y="330">INNER RING &#8594; 12 ACTION TOOLS &#183; UNSIGNED TX + LIVE DATA</text>
<text x="1120" y="330" text-anchor="end">OUTER RING &#8594; 77 GUIDES / 18 CATEGORIES</text>
</g>
<circle cx="600" cy="830" r="386" fill="none" stroke="#cdcfce" stroke-width="1.2"/>
<circle cx="600" cy="830" r="234" fill="none" stroke="#cdcfce" stroke-width="1.2" stroke-dasharray="2 5"/>
<line x1="600.0" y1="736.0" x2="600.0" y2="596.0" stroke="#48494b" stroke-width="1.4" opacity="0.55"/>
<line x1="647.0" y1="748.6" x2="717.0" y2="627.4" stroke="#48494b" stroke-width="1.4" opacity="0.55"/>
<line x1="681.4" y1="783.0" x2="802.6" y2="713.0" stroke="#48494b" stroke-width="1.4" opacity="0.55"/>
<line x1="694.0" y1="830.0" x2="834.0" y2="830.0" stroke="#48494b" stroke-width="1.4" opacity="0.55"/>
<line x1="681.4" y1="877.0" x2="802.6" y2="947.0" stroke="#48494b" stroke-width="1.4" opacity="0.55"/>
<line x1="647.0" y1="911.4" x2="717.0" y2="1032.6" stroke="#48494b" stroke-width="1.4" opacity="0.55"/>
<line x1="600.0" y1="924.0" x2="600.0" y2="1064.0" stroke="#48494b" stroke-width="1.4" opacity="0.55"/>
<line x1="553.0" y1="911.4" x2="483.0" y2="1032.6" stroke="#48494b" stroke-width="1.4" opacity="0.55"/>
<line x1="518.6" y1="877.0" x2="397.4" y2="947.0" stroke="#48494b" stroke-width="1.4" opacity="0.55"/>
<line x1="506.0" y1="830.0" x2="366.0" y2="830.0" stroke="#48494b" stroke-width="1.4" opacity="0.55"/>
<line x1="518.6" y1="783.0" x2="397.4" y2="713.0" stroke="#48494b" stroke-width="1.4" opacity="0.55"/>
<line x1="553.0" y1="748.6" x2="483.0" y2="627.4" stroke="#48494b" stroke-width="1.4" opacity="0.55"/>
<rect x="593.5" y="589.5" width="13" height="13" fill="#2c2d2f"/>
<text x="600.0" y="582.0" text-anchor="middle" font-family="'SFMono-Regular','SF Mono','JetBrains Mono',Menlo,Consolas,'Liberation Mono',monospace" font-size="18" font-weight="500" fill="#2c2d2f">route</text>
<rect x="710.5" y="620.9" width="13" height="13" fill="#2c2d2f"/>
<text x="731.0" y="633.5" text-anchor="start" font-family="'SFMono-Regular','SF Mono','JetBrains Mono',Menlo,Consolas,'Liberation Mono',monospace" font-size="18" font-weight="500" fill="#2c2d2f">solana_swap</text>
<rect x="796.1" y="706.5" width="13" height="13" fill="#2c2d2f"/>
<text x="816.6" y="719.1" text-anchor="start" font-family="'SFMono-Regular','SF Mono','JetBrains Mono',Menlo,Consolas,'Liberation Mono',monospace" font-size="18" font-weight="500" fill="#2c2d2f">pumpfun</text>
<rect x="827.5" y="823.5" width="13" height="13" fill="#2c2d2f"/>
<text x="848.0" y="836.1" text-anchor="start" font-family="'SFMono-Regular','SF Mono','JetBrains Mono',Menlo,Consolas,'Liberation Mono',monospace" font-size="18" font-weight="500" fill="#2c2d2f">profitability</text>
<rect x="796.1" y="940.5" width="13" height="13" fill="#2c2d2f"/>
<text x="816.6" y="953.1" text-anchor="start" font-family="'SFMono-Regular','SF Mono','JetBrains Mono',Menlo,Consolas,'Liberation Mono',monospace" font-size="18" font-weight="500" fill="#2c2d2f">abi</text>
<rect x="710.5" y="1026.1" width="13" height="13" fill="#2c2d2f"/>
<text x="731.0" y="1038.8" text-anchor="start" font-family="'SFMono-Regular','SF Mono','JetBrains Mono',Menlo,Consolas,'Liberation Mono',monospace" font-size="18" font-weight="500" fill="#2c2d2f">portfolio</text>
<rect x="593.5" y="1057.5" width="13" height="13" fill="#2c2d2f"/>
<text x="600.0" y="1091.0" text-anchor="middle" font-family="'SFMono-Regular','SF Mono','JetBrains Mono',Menlo,Consolas,'Liberation Mono',monospace" font-size="18" font-weight="500" fill="#2c2d2f">security</text>
<rect x="476.5" y="1026.1" width="13" height="13" fill="#2c2d2f"/>
<text x="469.0" y="1038.8" text-anchor="end" font-family="'SFMono-Regular','SF Mono','JetBrains Mono',Menlo,Consolas,'Liberation Mono',monospace" font-size="18" font-weight="500" fill="#2c2d2f">mev_protection</text>
<rect x="390.9" y="940.5" width="13" height="13" fill="#2c2d2f"/>
<text x="383.4" y="953.1" text-anchor="end" font-family="'SFMono-Regular','SF Mono','JetBrains Mono',Menlo,Consolas,'Liberation Mono',monospace" font-size="18" font-weight="500" fill="#2c2d2f">whale_watch</text>
<rect x="359.5" y="823.5" width="13" height="13" fill="#2c2d2f"/>
<text x="352.0" y="836.1" text-anchor="end" font-family="'SFMono-Regular','SF Mono','JetBrains Mono',Menlo,Consolas,'Liberation Mono',monospace" font-size="18" font-weight="500" fill="#2c2d2f">simulate</text>
<rect x="390.9" y="706.5" width="13" height="13" fill="#2c2d2f"/>
<text x="383.4" y="719.1" text-anchor="end" font-family="'SFMono-Regular','SF Mono','JetBrains Mono',Menlo,Consolas,'Liberation Mono',monospace" font-size="18" font-weight="500" fill="#2c2d2f">chaintrade</text>
<rect x="476.5" y="620.9" width="13" height="13" fill="#2c2d2f"/>
<text x="469.0" y="633.5" text-anchor="end" font-family="'SFMono-Regular','SF Mono','JetBrains Mono',Menlo,Consolas,'Liberation Mono',monospace" font-size="18" font-weight="500" fill="#2c2d2f">catalog</text>
<rect x="595.0" y="439.0" width="10" height="10" fill="#e3e5e4" stroke="#48494b" stroke-width="1.6"/>
<text x="600.0" y="432.0" text-anchor="middle" font-family="'SFMono-Regular','SF Mono','JetBrains Mono',Menlo,Consolas,'Liberation Mono',monospace" font-size="15" fill="#48494b">Market & DeFi data</text>
<rect x="727.0" y="462.3" width="10" height="10" fill="#e3e5e4" stroke="#48494b" stroke-width="1.6"/>
<text x="744.0" y="472.4" text-anchor="start" font-family="'SFMono-Regular','SF Mono','JetBrains Mono',Menlo,Consolas,'Liberation Mono',monospace" font-size="15" fill="#48494b">Trading strategies</text>
<rect x="843.1" y="529.3" width="10" height="10" fill="#e3e5e4" stroke="#48494b" stroke-width="1.6"/>
<text x="860.1" y="539.4" text-anchor="start" font-family="'SFMono-Regular','SF Mono','JetBrains Mono',Menlo,Consolas,'Liberation Mono',monospace" font-size="15" fill="#48494b">Wallets & setup</text>
<rect x="929.3" y="632.0" width="10" height="10" fill="#e3e5e4" stroke="#48494b" stroke-width="1.6"/>
<text x="946.3" y="642.1" text-anchor="start" font-family="'SFMono-Regular','SF Mono','JetBrains Mono',Menlo,Consolas,'Liberation Mono',monospace" font-size="15" fill="#48494b">Signing & auth</text>
<rect x="975.1" y="758.0" width="10" height="10" fill="#e3e5e4" stroke="#48494b" stroke-width="1.6"/>
<text x="992.1" y="768.1" text-anchor="start" font-family="'SFMono-Regular','SF Mono','JetBrains Mono',Menlo,Consolas,'Liberation Mono',monospace" font-size="15" fill="#48494b">NFTs</text>
<rect x="975.1" y="892.0" width="10" height="10" fill="#e3e5e4" stroke="#48494b" stroke-width="1.6"/>
<text x="992.1" y="902.1" text-anchor="start" font-family="'SFMono-Regular','SF Mono','JetBrains Mono',Menlo,Consolas,'Liberation Mono',monospace" font-size="15" fill="#48494b">Solana</text>
<rect x="929.3" y="1018.0" width="10" height="10" fill="#e3e5e4" stroke="#48494b" stroke-width="1.6"/>
<text x="946.3" y="1028.1" text-anchor="start" font-family="'SFMono-Regular','SF Mono','JetBrains Mono',Menlo,Consolas,'Liberation Mono',monospace" font-size="15" fill="#48494b">Stablecoins</text>
<rect x="843.1" y="1120.7" width="10" height="10" fill="#e3e5e4" stroke="#48494b" stroke-width="1.6"/>
<text x="860.1" y="1130.8" text-anchor="start" font-family="'SFMono-Regular','SF Mono','JetBrains Mono',Menlo,Consolas,'Liberation Mono',monospace" font-size="15" fill="#48494b">Payments & x402</text>
<rect x="727.0" y="1187.7" width="10" height="10" fill="#e3e5e4" stroke="#48494b" stroke-width="1.6"/>
<text x="744.0" y="1197.8" text-anchor="start" font-family="'SFMono-Regular','SF Mono','JetBrains Mono',Menlo,Consolas,'Liberation Mono',monospace" font-size="15" fill="#48494b">Compressed NFTs</text>
<rect x="595.0" y="1211.0" width="10" height="10" fill="#e3e5e4" stroke="#48494b" stroke-width="1.6"/>
<text x="600.0" y="1238.8" text-anchor="middle" font-family="'SFMono-Regular','SF Mono','JetBrains Mono',Menlo,Consolas,'Liberation Mono',monospace" font-size="15" fill="#48494b">Deploy contracts</text>
<rect x="463.0" y="1187.7" width="10" height="10" fill="#e3e5e4" stroke="#48494b" stroke-width="1.6"/>
<text x="456.0" y="1197.8" text-anchor="end" font-family="'SFMono-Regular','SF Mono','JetBrains Mono',Menlo,Consolas,'Liberation Mono',monospace" font-size="15" fill="#48494b">Swaps & bridging</text>
<rect x="346.9" y="1120.7" width="10" height="10" fill="#e3e5e4" stroke="#48494b" stroke-width="1.6"/>
<text x="339.9" y="1130.8" text-anchor="end" font-family="'SFMono-Regular','SF Mono','JetBrains Mono',Menlo,Consolas,'Liberation Mono',monospace" font-size="15" fill="#48494b">Send & debug tx</text>
<rect x="260.7" y="1018.0" width="10" height="10" fill="#e3e5e4" stroke="#48494b" stroke-width="1.6"/>
<text x="253.7" y="1028.1" text-anchor="end" font-family="'SFMono-Regular','SF Mono','JetBrains Mono',Menlo,Consolas,'Liberation Mono',monospace" font-size="15" fill="#48494b">Smart accounts</text>
<rect x="214.9" y="892.0" width="10" height="10" fill="#e3e5e4" stroke="#48494b" stroke-width="1.6"/>
<text x="207.9" y="902.1" text-anchor="end" font-family="'SFMono-Regular','SF Mono','JetBrains Mono',Menlo,Consolas,'Liberation Mono',monospace" font-size="15" fill="#48494b">Bitcoin</text>
<rect x="214.9" y="758.0" width="10" height="10" fill="#e3e5e4" stroke="#48494b" stroke-width="1.6"/>
<text x="207.9" y="768.1" text-anchor="end" font-family="'SFMono-Regular','SF Mono','JetBrains Mono',Menlo,Consolas,'Liberation Mono',monospace" font-size="15" fill="#48494b">Security</text>
<rect x="260.7" y="632.0" width="10" height="10" fill="#e3e5e4" stroke="#48494b" stroke-width="1.6"/>
<text x="253.7" y="642.1" text-anchor="end" font-family="'SFMono-Regular','SF Mono','JetBrains Mono',Menlo,Consolas,'Liberation Mono',monospace" font-size="15" fill="#48494b">Staking</text>
<rect x="346.9" y="529.3" width="10" height="10" fill="#e3e5e4" stroke="#48494b" stroke-width="1.6"/>
<text x="339.9" y="539.4" text-anchor="end" font-family="'SFMono-Regular','SF Mono','JetBrains Mono',Menlo,Consolas,'Liberation Mono',monospace" font-size="15" fill="#48494b">Infra & perf</text>
<rect x="463.0" y="462.3" width="10" height="10" fill="#e3e5e4" stroke="#48494b" stroke-width="1.6"/>
<text x="456.0" y="472.4" text-anchor="end" font-family="'SFMono-Regular','SF Mono','JetBrains Mono',Menlo,Consolas,'Liberation Mono',monospace" font-size="15" fill="#48494b">Tokens ERC-20/SPL</text>
<circle cx="600" cy="830" r="94" fill="#2c2d2f" filter="url(#soft)"/>
<circle cx="600" cy="830" r="94" fill="none" stroke="#e3e5e4" stroke-width="1.5" opacity="0.25"/>
<rect x="573.8" y="787.2" width="9.1" height="9.1" fill="#f4f5f4"/>
<rect x="584.2" y="787.2" width="9.1" height="9.1" fill="#f4f5f4"/>
<rect x="594.8" y="787.2" width="9.1" height="9.1" fill="#f4f5f4"/>
<rect x="605.2" y="787.2" width="9.1" height="9.1" fill="#f4f5f4"/>
<rect x="615.8" y="787.2" width="9.1" height="9.1" fill="#f4f5f4"/>
<rect x="563.2" y="797.8" width="9.1" height="9.1" fill="#f4f5f4"/>
<rect x="573.8" y="797.8" width="9.1" height="9.1" fill="#f4f5f4"/>
<rect x="584.2" y="797.8" width="9.1" height="9.1" fill="#f4f5f4"/>
<rect x="594.8" y="797.8" width="9.1" height="9.1" fill="#f4f5f4"/>
<rect x="605.2" y="797.8" width="9.1" height="9.1" fill="#f4f5f4"/>
<rect x="615.8" y="797.8" width="9.1" height="9.1" fill="#f4f5f4"/>
<rect x="626.2" y="797.8" width="9.1" height="9.1" fill="#f4f5f4"/>
<rect x="563.2" y="808.2" width="9.1" height="9.1" fill="#f4f5f4"/>
<rect x="573.8" y="808.2" width="9.1" height="9.1" fill="#f4f5f4"/>
<rect x="594.8" y="808.2" width="9.1" height="9.1" fill="#f4f5f4"/>
<rect x="615.8" y="808.2" width="9.1" height="9.1" fill="#f4f5f4"/>
<rect x="626.2" y="808.2" width="9.1" height="9.1" fill="#f4f5f4"/>
<rect x="563.2" y="818.8" width="9.1" height="9.1" fill="#f4f5f4"/>
<rect x="573.8" y="818.8" width="9.1" height="9.1" fill="#f4f5f4"/>
<rect x="584.2" y="818.8" width="9.1" height="9.1" fill="#f4f5f4"/>
<rect x="594.8" y="818.8" width="9.1" height="9.1" fill="#f4f5f4"/>
<rect x="605.2" y="818.8" width="9.1" height="9.1" fill="#f4f5f4"/>
<rect x="615.8" y="818.8" width="9.1" height="9.1" fill="#f4f5f4"/>
<rect x="626.2" y="818.8" width="9.1" height="9.1" fill="#f4f5f4"/>
<rect x="563.2" y="829.2" width="9.1" height="9.1" fill="#f4f5f4"/>
<rect x="584.2" y="829.2" width="9.1" height="9.1" fill="#f4f5f4"/>
<rect x="594.8" y="829.2" width="9.1" height="9.1" fill="#f4f5f4"/>
<rect x="605.2" y="829.2" width="9.1" height="9.1" fill="#f4f5f4"/>
<rect x="626.2" y="829.2" width="9.1" height="9.1" fill="#f4f5f4"/>
<rect x="573.8" y="839.8" width="9.1" height="9.1" fill="#f4f5f4"/>
<rect x="584.2" y="839.8" width="9.1" height="9.1" fill="#f4f5f4"/>
<rect x="594.8" y="839.8" width="9.1" height="9.1" fill="#f4f5f4"/>
<rect x="605.2" y="839.8" width="9.1" height="9.1" fill="#f4f5f4"/>
<rect x="615.8" y="839.8" width="9.1" height="9.1" fill="#f4f5f4"/>
<rect x="584.2" y="850.2" width="9.1" height="9.1" fill="#f4f5f4"/>
<rect x="605.2" y="850.2" width="9.1" height="9.1" fill="#f4f5f4"/>
<text x="600" y="904.0" text-anchor="middle" font-family="'SFMono-Regular','SF Mono','JetBrains Mono',Menlo,Consolas,'Liberation Mono',monospace" font-size="12.5" letter-spacing="2" fill="#f4f5f4">MCP BRAIN</text>
<line x1="80" y1="1338" x2="1120" y2="1338" stroke="#cdcfce" stroke-width="1.5"/>
<text x="600" y="1372" text-anchor="middle" font-family="'SFMono-Regular','SF Mono','JetBrains Mono',Menlo,Consolas,'Liberation Mono',monospace" font-weight="600" font-size="23" letter-spacing="0.5" fill="#2c2d2f">77 GUIDES &#183; 18 CATEGORIES &#183; 27 ENDPOINTS &#183; 10 CHAINS</text>
<text x="600" y="1406" text-anchor="middle" font-family="'SFMono-Regular','SF Mono','JetBrains Mono',Menlo,Consolas,'Liberation Mono',monospace" font-size="17" letter-spacing="0.5" fill="#8d8f90">KEYSTORE-FREE &#183; STATELESS &#183; UNSIGNED TX ONLY &#183; 89 TESTS</text>
<g>
<rect x="368" y="1426" width="464" height="40" rx="20" fill="none" stroke="#48494b" stroke-width="1.6"/>
<rect x="382" y="1434" width="15" height="15" rx="3" fill="#2c2d2f"/>
<path d="M386 1441 v-3 a3.5 3.5 0 0 1 7 0 v3" fill="none" stroke="#e3e5e4" stroke-width="1.6"/>
<text x="606" y="1452" text-anchor="middle" font-family="'SFMono-Regular','SF Mono','JetBrains Mono',Menlo,Consolas,'Liberation Mono',monospace" font-size="15.5" letter-spacing="0.5" fill="#48494b">hold a Normie NFT &#8212;or&#8212; pay $0.10 via x402</text>
</g>
<text x="600" y="1514" text-anchor="middle" font-family="'SFMono-Regular','SF Mono','JetBrains Mono',Menlo,Consolas,'Liberation Mono',monospace" font-weight="700" font-size="25" letter-spacing="0.5" fill="#2c2d2f">crypto-knowledge-mcp.vercel.app</text>
<text x="600" y="1542" text-anchor="middle" font-family="'SFMono-Regular','SF Mono','JetBrains Mono',Menlo,Consolas,'Liberation Mono',monospace" font-size="14" letter-spacing="1" fill="#8d8f90">opensea.io/tools/erc8257/ethereum/71</text>
</svg>